<?xml version="1.0" encoding="UTF-8" standalone="no"?>
<!-- Created with Inkscape (http://www.inkscape.org/) -->

<svg
   xmlns:osb="http://www.openswatchbook.org/uri/2009/osb"
   xmlns:dc="http://purl.org/dc/elements/1.1/"
   xmlns:cc="http://creativecommons.org/ns#"
   xmlns:rdf="http://www.w3.org/1999/02/22-rdf-syntax-ns#"
   xmlns:svg="http://www.w3.org/2000/svg"
   xmlns="http://www.w3.org/2000/svg"
   xmlns:xlink="http://www.w3.org/1999/xlink"
   xmlns:sodipodi="http://sodipodi.sourceforge.net/DTD/sodipodi-0.dtd"
   xmlns:inkscape="http://www.inkscape.org/namespaces/inkscape"
   width="1920"
   height="1080"
   id="svg4700"
   version="1.1"
   inkscape:version="0.91 r13725"
   viewBox="0 0 1920 1080"
   sodipodi:docname="list-expenditures2.svg"
   inkscape:export-filename="/home/marcel/web/pfennig-design/list-expenditures.png"
   inkscape:export-xdpi="90"
   inkscape:export-ydpi="90">
  <defs
     id="defs4702">
    <linearGradient
       id="linearGradient12738"
       osb:paint="solid">
      <stop
         style="stop-color:#ef5350;stop-opacity:1;"
         offset="0"
         id="stop12740" />
    </linearGradient>
    <linearGradient
       id="linearGradient5938"
       osb:paint="solid">
      <stop
         style="stop-color:#000000;stop-opacity:1;"
         offset="0"
         id="stop5940" />
    </linearGradient>
    <linearGradient
       id="linearGradient5861"
       osb:paint="solid">
      <stop
         style="stop-color:#000000;stop-opacity:1;"
         offset="0"
         id="stop5863" />
    </linearGradient>
    <linearGradient
       id="linearGradient5701"
       osb:paint="solid"
       gradientTransform="matrix(6.9179976e38,0,0,6.9179976e38,-2.0318151e39,-2.3997909e41)">
      <stop
         style="stop-color:#ffffff;stop-opacity:1;"
         offset="0"
         id="stop5703" />
    </linearGradient>
    <linearGradient
       id="linearGradient4208"
       osb:paint="solid"
       gradientTransform="matrix(1.7845569,-1.4855885,1.4855887,1.7845569,-113.84709,385.31457)">
      <stop
         style="stop-color:#424242;stop-opacity:1;"
         offset="0"
         id="stop4210" />
    </linearGradient>
    <linearGradient
       id="linearGradient4202"
       osb:paint="solid"
       gradientTransform="matrix(0.70710678,-0.70710678,0.70710678,0.70710678,-7.8376269e-6,-6.1623731e-6)">
      <stop
         style="stop-color:#5e35b1;stop-opacity:1;"
         offset="0"
         id="stop4204" />
    </linearGradient>
    <linearGradient
       id="linearGradient4196"
       osb:paint="solid"
       gradientTransform="translate(0,5.9219669e-6)">
      <stop
         style="stop-color:#c3c3e5;stop-opacity:1;"
         offset="0"
         id="stop4198" />
    </linearGradient>
    <linearGradient
       id="linearGradient4190"
       osb:paint="solid"
       gradientTransform="translate(9.2454893,-9.2455)">
      <stop
         style="stop-color:#8200ff;stop-opacity:1;"
         offset="0"
         id="stop4192" />
    </linearGradient>
    <linearGradient
       inkscape:collect="always"
       xlink:href="#linearGradient4190"
       id="linearGradient4194"
       x1="413.33334"
       y1="343.33334"
       x2="421.66666"
       y2="108.33334"
       gradientUnits="userSpaceOnUse"
       gradientTransform="translate(3.3333333e-6,3.3333258e-8)" />
    <linearGradient
       inkscape:collect="always"
       xlink:href="#linearGradient4196"
       id="linearGradient4200"
       x1="355"
       y1="216.66667"
       x2="448.33334"
       y2="216.66667"
       gradientUnits="userSpaceOnUse" />
    <linearGradient
       inkscape:collect="always"
       xlink:href="#linearGradient4202"
       id="linearGradient4206"
       x1="205"
       y1="215.83333"
       x2="298.33334"
       y2="215.83333"
       gradientUnits="userSpaceOnUse"
       gradientTransform="translate(3.3333334e-6,-3.3333348e-7)" />
    <linearGradient
       inkscape:collect="always"
       xlink:href="#linearGradient4208"
       id="linearGradient4212"
       x1="513.33331"
       y1="191.66667"
       x2="606.66665"
       y2="191.66667"
       gradientUnits="userSpaceOnUse" />
    <linearGradient
       inkscape:collect="always"
       xlink:href="#linearGradient4202"
       id="linearGradient5662"
       gradientUnits="userSpaceOnUse"
       gradientTransform="translate(-2.575247e-6,3.953125e-6)" />
  </defs>
  <sodipodi:namedview
     id="base"
     pagecolor="#ffffff"
     bordercolor="#666666"
     borderopacity="1.0"
     inkscape:pageopacity="0.0"
     inkscape:pageshadow="2"
     inkscape:zoom="0.69540365"
     inkscape:cx="618.00351"
     inkscape:cy="713.92931"
     inkscape:document-units="px"
     inkscape:current-layer="layer1"
     showgrid="false"
     inkscape:window-width="2560"
     inkscape:window-height="1367"
     inkscape:window-x="1920"
     inkscape:window-y="27"
     inkscape:window-maximized="1"
     showguides="false" />
  <metadata
     id="metadata4705">
    <rdf:RDF>
      <cc:Work
         rdf:about="">
        <dc:format>image/svg+xml</dc:format>
        <dc:type
           rdf:resource="http://purl.org/dc/dcmitype/StillImage" />
        <dc:title></dc:title>
      </cc:Work>
    </rdf:RDF>
  </metadata>
  <g
     id="layer1"
     inkscape:label="Layer 1"
     inkscape:groupmode="layer">
    <rect
       style="opacity:1;fill:url(#linearGradient4206);fill-opacity:1;stroke:none;stroke-width:2;stroke-linejoin:miter;stroke-miterlimit:4;stroke-dasharray:48, 48;stroke-dashoffset:20;stroke-opacity:1"
       id="rect4143"
       width="93.333336"
       height="75"
       x="358.33334"
       y="140" />
    <rect
       style="opacity:1;fill:url(#linearGradient4200);fill-opacity:1;stroke:none;stroke-width:2;stroke-linejoin:miter;stroke-miterlimit:4;stroke-dasharray:48, 48;stroke-dashoffset:20;stroke-opacity:1"
       id="rect4143-3"
       width="93.333336"
       height="75"
       x="355"
       y="179.16667" />
    <rect
       style="opacity:1;fill:url(#linearGradient4212);fill-opacity:1;stroke:none;stroke-width:2;stroke-linejoin:miter;stroke-miterlimit:4;stroke-dasharray:48, 48;stroke-dashoffset:20;stroke-opacity:1"
       id="rect4143-3-5"
       width="93.333336"
       height="75"
       x="513.33331"
       y="154.16667" />
    <rect
       style="opacity:1;fill:url(#linearGradient4194);fill-opacity:1;stroke:none;stroke-width:2;stroke-linejoin:miter;stroke-miterlimit:4;stroke-dasharray:48, 48;stroke-dashoffset:20;stroke-opacity:1"
       id="rect4143-3-2"
       width="93.333336"
       height="75"
       x="321.66669"
       y="329.16666" />
    <rect
       style="opacity:1;fill:url(#linearGradient5662);fill-opacity:1;stroke:none;stroke-width:2;stroke-linejoin:miter;stroke-miterlimit:4;stroke-dasharray:48, 48;stroke-dashoffset:20;stroke-opacity:1"
       id="rect4214"
       width="980"
       height="1920"
       x="100"
       y="-1920"
       transform="matrix(0,1,-1,0,0,0)" />
    <text
       xml:space="preserve"
       style="font-style:normal;font-weight:normal;font-size:40px;line-height:125%;font-family:Sans;letter-spacing:0px;word-spacing:0px;fill:url(#linearGradient4202);fill-opacity:1;stroke:none;stroke-width:1px;stroke-linecap:butt;stroke-linejoin:miter;stroke-opacity:1"
       x="105.33331"
       y="60.777748"
       id="text5248"
       sodipodi:linespacing="125%"><tspan
         sodipodi:role="line"
         id="tspan5250"
         x="105.33331"
         y="60.777748"
         style="font-style:normal;font-variant:normal;font-weight:600;font-stretch:normal;font-size:32.5px;font-family:'Graphik Web';-inkscape-font-specification:'Graphik Web Semi-Bold';fill:url(#linearGradient4202);fill-opacity:1">PFENNIG</tspan></text>
    <rect
       style="opacity:1;fill:url(#linearGradient4208);fill-opacity:1;stroke:url(#linearGradient4208);stroke-width:1.99999964;stroke-linejoin:miter;stroke-miterlimit:4;stroke-dasharray:none;stroke-dashoffset:20;stroke-opacity:1"
       id="rect5672"
       width="86.942131"
       height="978"
       x="1.6903547"
       y="103" />
    <rect
       style="opacity:1;fill:url(#linearGradient4202);fill-opacity:1;stroke:url(#linearGradient4208);stroke-width:0;stroke-linejoin:miter;stroke-miterlimit:4;stroke-dasharray:none;stroke-dashoffset:20;stroke-opacity:1"
       id="rect13476"
       width="49.999989"
       height="49.999989"
       x="160.56915"
       y="3.587326"
       transform="matrix(0.70710678,0.70710678,-0.70710678,0.70710678,0,0)" />
    <g
       id="g5686"
       transform="matrix(0.49008114,0,0,0.49008114,25.582333,25.400649)"
       style="fill:url(#linearGradient4208);fill-opacity:1">
      <path
         id="path5688"
         d="m 11.432,37.299 c 17.347,0.033 42.313,0.8 59.655,0.469 -1.868,1.885 -3.715,3.792 -5.505,5.755 -4.722,5.177 2.959,12.902 7.701,7.702 5.24,-5.746 10.854,-11.115 16.61,-16.338 2.716,-2.463 1.917,-5.724 -0.202,-7.621 -0.365,-0.538 -0.837,-1.04 -1.444,-1.477 -5.351,-3.847 -10.48,-7.961 -15.509,-12.219 -5.324,-4.51 -13.068,3.156 -7.701,7.702 2.236,1.894 4.502,3.751 6.786,5.584 C 54.235,27.223 29.022,26.441 11.431,26.407 4.407,26.393 4.408,37.285 11.432,37.299 Z"
         style="fill:url(#linearGradient4208);fill-opacity:1"
         inkscape:connector-curvature="0" />
      <path
         id="path5690"
         d="m 86.356,59.083 c -17.592,0.034 -42.804,0.816 -60.392,0.449 2.284,-1.833 4.55,-3.69 6.786,-5.584 5.367,-4.546 -2.378,-12.212 -7.701,-7.702 -5.028,4.258 -10.158,8.372 -15.509,12.219 -0.607,0.437 -1.08,0.939 -1.444,1.477 -2.119,1.897 -2.918,5.158 -0.202,7.621 5.757,5.223 11.37,10.592 16.61,16.338 4.742,5.2 12.423,-2.525 7.701,-7.702 -1.79,-1.964 -3.637,-3.87 -5.506,-5.755 17.343,0.331 42.31,-0.436 59.656,-0.469 7.025,-0.013 7.026,-10.905 10e-4,-10.892 z"
         style="fill:url(#linearGradient4208);fill-opacity:1"
         inkscape:connector-curvature="0" />
    </g>
    <g
       id="g5834"
       transform="matrix(0.11729655,0,0,0.11729655,21.721596,217.84428)"
       style="fill:url(#linearGradient5701)">
      <g
         id="g5787"
         style="fill:url(#linearGradient5701)">
        <g
           id="Layer_5_6_"
           style="fill:url(#linearGradient5701)">
          <g
             id="g5790"
             style="fill:url(#linearGradient5701)">
            <path
               id="path5792"
               d="m 286.306,70.889 c -0.328,-2.439 -1.582,-4.603 -3.533,-6.091 -1.617,-1.236 -3.545,-1.889 -5.58,-1.889 -2.895,0 -5.563,1.318 -7.32,3.618 0,0 -35.738,46.342 -47.355,62.012 -0.262,0.352 -0.66,0.026 -0.66,0.026 L 166.12,98.914 c -2.041,-1.086 -4.359,-1.66 -6.705,-1.66 -4.846,0 -9.34,2.339 -12.023,6.257 l -37.938,55.442 c -0.018,0.007 -0.355,0.672 -0.955,0.672 l -38.793,0 c -5.074,0 -9.203,4.128 -9.203,9.203 0,5.074 4.129,9.202 9.203,9.202 l 39.4,0 c 5.539,0 11.83,-3.316 14.957,-7.883 0.275,-0.398 27.41,-39.714 36.271,-52.959 0.289,-0.432 0.674,-0.145 0.674,-0.145 l 55.402,29.472 c 2.045,1.088 4.391,1.664 6.785,1.664 4.686,0 9.121,-2.144 11.863,-5.733 l 49.443,-64.749 c 1.49,-1.952 2.129,-4.37 1.805,-6.808 z"
               inkscape:connector-curvature="0"
               style="fill:url(#linearGradient5701)" />
            <path
               id="path5794"
               d="m 343.952,18.226 0,-7.318 C 343.952,4.908 339.044,0 333.044,0 L 13.845,0 C 7.847,0 2.937,4.909 2.937,10.908 l 0,7.318 c 0,4.307 2.531,8.044 6.178,9.811 1.217,0.589 3.967,1.051 3.967,3.357 l 0,184.13 c 0,1.373 -1.75,1.826 -2.568,2.09 -4.383,1.415 -7.576,5.535 -7.576,10.372 l 0,7.318 c 0,6 4.91,10.909 10.908,10.909 l 319.199,0 c 6,0 10.908,-4.909 10.908,-10.909 l 0,-7.318 c 0,-5.25 -3.762,-9.656 -8.723,-10.675 -0.465,-0.095 -1.42,-0.052 -1.42,-1.597 l 0,-183.898 c 0,-2.364 1.99,-3.003 2.91,-3.334 4.206,-1.515 7.232,-5.545 7.232,-10.256 z m -28.686,196.725 c 0,1.582 -1.766,1.402 -1.766,1.402 l -279.532,0 c 0,0 -2.342,0.452 -2.342,-1.593 0,-45.68 0,-136.64 0,-182.718 0,-1.955 2.707,-2.298 2.707,-2.298 l 277.621,0 c 0,0 3.311,-0.156 3.311,2.72 0.001,45.973 0.001,136.865 0.001,182.487 z"
               inkscape:connector-curvature="0"
               style="fill:url(#linearGradient5701)" />
            <path
               id="path5796"
               d="m 247.451,329.032 -62.592,-43.871 c 0,0 -1.596,-0.904 -1.596,-2.177 0,-3.931 0,-15.726 0,-15.726 0,-5.422 -4.395,-5.182 -9.816,-5.182 -5.424,0 -9.818,-0.24 -9.818,5.182 0,0 0,11.794 0,15.726 0,1.353 -2.092,2.526 -2.092,2.526 L 99.44,329.031 c -4.441,3.112 -5.518,9.235 -2.404,13.675 1.91,2.726 4.955,4.184 8.047,4.184 1.947,0 3.912,-0.578 5.627,-1.779 l 51.982,-36.433 c 0,0 0.936,-0.718 0.936,0.782 0,6.903 0,27.612 0,27.612 0,5.422 4.395,9.817 9.818,9.817 5.422,0 9.816,-4.395 9.816,-9.817 0,0 0,-20.862 0,-27.816 0,-1.091 0.67,-0.764 0.67,-0.764 l 52.246,36.62 c 1.715,1.202 3.682,1.779 5.627,1.779 3.094,0 6.139,-1.459 8.049,-4.184 3.112,-4.441 2.037,-10.563 -2.403,-13.675 z"
               inkscape:connector-curvature="0"
               style="fill:url(#linearGradient5701)" />
          </g>
        </g>
      </g>
      <g
         id="g5798"
         style="fill:url(#linearGradient5701)" />
      <g
         id="g5800"
         style="fill:url(#linearGradient5701)" />
      <g
         id="g5802"
         style="fill:url(#linearGradient5701)" />
      <g
         id="g5804"
         style="fill:url(#linearGradient5701)" />
      <g
         id="g5806"
         style="fill:url(#linearGradient5701)" />
      <g
         id="g5808"
         style="fill:url(#linearGradient5701)" />
      <g
         id="g5810"
         style="fill:url(#linearGradient5701)" />
      <g
         id="g5812"
         style="fill:url(#linearGradient5701)" />
      <g
         id="g5814"
         style="fill:url(#linearGradient5701)" />
      <g
         id="g5816"
         style="fill:url(#linearGradient5701)" />
      <g
         id="g5818"
         style="fill:url(#linearGradient5701)" />
      <g
         id="g5820"
         style="fill:url(#linearGradient5701)" />
      <g
         id="g5822"
         style="fill:url(#linearGradient5701)" />
      <g
         id="g5824"
         style="fill:url(#linearGradient5701)" />
      <g
         id="g5826"
         style="fill:url(#linearGradient5701)" />
    </g>
    <rect
       style="opacity:1;fill:url(#linearGradient5701);fill-opacity:1;stroke:url(#linearGradient4208);stroke-width:0;stroke-linejoin:miter;stroke-miterlimit:4;stroke-dasharray:none;stroke-dashoffset:20;stroke-opacity:1"
       id="rect4476"
       width="1353"
       height="63.124268"
       x="281"
       y="134" />
    <rect
       style="opacity:1;fill:url(#linearGradient4196);fill-opacity:1;stroke:none;stroke-width:1;stroke-linejoin:miter;stroke-miterlimit:4;stroke-dasharray:none;stroke-dashoffset:15;stroke-opacity:1"
       id="rect5867"
       width="1354"
       height="56"
       x="280.5"
       y="22.8715" />
    <g
       id="g6055"
       transform="matrix(0.19512957,0,0,0.19512957,20,991.50659)"
       style="fill:url(#linearGradient5701)">
      <g
         id="g6007"
         style="fill:url(#linearGradient5701)">
        <g
           id="g6009"
           style="fill:url(#linearGradient5701)">
          <g
             id="g6011"
             style="fill:url(#linearGradient5701)">
            <g
               id="g6013"
               style="fill:url(#linearGradient5701)">
              <g
                 id="g6015"
                 style="fill:url(#linearGradient5701)">
                <path
                   id="path6017"
                   d="m 113.711,202.935 -21.548,0 c -3.242,0 -4.373,0.007 -15.421,-27.364 l -8.532,-3.468 c -23.248,10.547 -26,10.547 -26.92,10.547 l -1.779,0 -1.517,-1.303 -15.275,-14.945 c -2.323,-2.319 -3.128,-3.124 8.825,-30.137 l -3.479,-8.231 C 0,117.977 0,116.81 0,113.496 L 0,92.37 C 0,89.06 0,88.015 27.972,77.199 L 31.451,68.95 C 18.807,42.348 19.677,41.522 22.171,39.174 l 16.427,-16.105 2.04,-0.064 c 2.48,0 11.681,3.357 27.371,9.981 l 8.507,-3.454 C 86.758,2.054 88.015,2.058 91.246,2.058 l 21.548,0 c 3.228,0 4.363,0.004 15.411,27.382 l 8.546,3.443 c 23.212,-10.533 26,-10.533 26.927,-10.533 l 1.768,0 1.517,1.281 15.275,14.92 c 2.323,2.344 3.117,3.146 -8.836,30.17 l 3.489,8.278 c 28.101,10.014 28.101,11.177 28.101,14.498 l 0,21.101 c 0,3.232 0,4.37 -28.008,15.192 l -3.457,8.256 c 12.58,26.487 11.749,27.317 9.394,29.69 l -16.552,16.205 -2.051,0.057 c -2.469,0 -11.649,-3.361 -27.317,-9.992 l -8.557,3.457 c -10.27,27.472 -11.437,27.472 -14.733,27.472 z m -19.308,-8.722 16.996,0 c 1.95,-3.976 6.166,-14.516 9.541,-23.595 l 0.68,-1.807 15.475,-6.249 1.664,0.705 c 9.223,3.933 20.124,8.292 24.372,9.631 l 11.943,-11.681 c -1.517,-4.205 -6.116,-14.494 -10.264,-23.173 l -0.837,-1.764 6.403,-15.285 1.743,-0.673 c 9.316,-3.586 20.11,-8.013 24.143,-10.032 l 0,-16.41 c -4.08,-1.918 -14.831,-6.009 -24.096,-9.294 l -1.814,-0.648 -6.445,-15.3 0.769,-1.725 c 3.965,-8.947 8.375,-19.501 9.788,-23.753 L 162.489,31.454 c -3.865,1.349 -14.688,5.987 -23.817,10.153 l -1.7,0.78 -15.475,-6.238 -0.691,-1.721 c -3.658,-9.13 -8.203,-19.716 -10.253,-23.635 l -16.984,0 c -1.961,3.965 -6.163,14.509 -9.53,23.585 l -0.669,1.797 -15.432,6.27 -1.664,-0.712 C 57.03,37.807 46.107,33.455 41.845,32.117 L 29.923,43.805 c 1.496,4.198 6.109,14.48 10.243,23.159 l 0.848,1.768 -6.435,15.278 -1.732,0.669 C 23.546,88.261 12.77,92.685 8.736,94.696 l 0,16.431 c 4.08,1.925 14.82,6.027 24.079,9.326 l 1.8,0.655 6.446,15.249 -0.769,1.721 c -3.965,8.94 -8.371,19.48 -9.788,23.724 l 12,11.742 c 3.854,-1.36 14.663,-5.998 23.803,-10.168 l 1.711,-0.784 15.443,6.277 0.691,1.721 c 3.669,9.133 8.2,19.701 10.251,23.623 z m 8.092,-56.56 c -19.759,0 -35.849,-15.772 -35.849,-35.159 0,-19.372 16.087,-35.134 35.849,-35.134 19.748,0 35.799,15.765 35.799,35.134 0,19.387 -16.051,35.159 -35.799,35.159 z m 0,-61.563 c -14.956,0 -27.113,11.846 -27.113,26.405 0,14.569 12.154,26.426 27.113,26.426 14.931,0 27.078,-11.857 27.078,-26.426 C 129.569,87.936 117.426,76.09 102.495,76.09 Z"
                   style="fill:url(#linearGradient5701)"
                   inkscape:connector-curvature="0" />
              </g>
            </g>
          </g>
        </g>
      </g>
      <g
         id="g6019"
         style="fill:url(#linearGradient5701)" />
      <g
         id="g6021"
         style="fill:url(#linearGradient5701)" />
      <g
         id="g6023"
         style="fill:url(#linearGradient5701)" />
      <g
         id="g6025"
         style="fill:url(#linearGradient5701)" />
      <g
         id="g6027"
         style="fill:url(#linearGradient5701)" />
      <g
         id="g6029"
         style="fill:url(#linearGradient5701)" />
      <g
         id="g6031"
         style="fill:url(#linearGradient5701)" />
      <g
         id="g6033"
         style="fill:url(#linearGradient5701)" />
      <g
         id="g6035"
         style="fill:url(#linearGradient5701)" />
      <g
         id="g6037"
         style="fill:url(#linearGradient5701)" />
      <g
         id="g6039"
         style="fill:url(#linearGradient5701)" />
      <g
         id="g6041"
         style="fill:url(#linearGradient5701)" />
      <g
         id="g6043"
         style="fill:url(#linearGradient5701)" />
      <g
         id="g6045"
         style="fill:url(#linearGradient5701)" />
      <g
         id="g6047"
         style="fill:url(#linearGradient5701)" />
    </g>
    <g
       id="g6122"
       transform="matrix(0.05773067,0,0,0.05773067,297.33415,31.03897)"
       style="fill:url(#linearGradient5701)">
      <g
         id="g6079"
         style="fill:url(#linearGradient5701)">
        <g
           id="_x34__4_"
           style="fill:url(#linearGradient5701)">
          <g
             id="g6082"
             style="fill:url(#linearGradient5701)">
            <path
               id="path6084"
               d="M 606.209,578.714 448.198,423.228 C 489.576,378.272 515,318.817 515,253.393 514.98,113.439 399.704,0 257.493,0 115.282,0 0.006,113.439 0.006,253.393 c 0,139.954 115.276,253.393 257.487,253.393 61.445,0 117.801,-21.253 162.068,-56.586 l 158.624,156.099 c 7.729,7.614 20.277,7.614 28.006,0 7.747,-7.613 7.747,-19.971 0.018,-27.585 z M 257.493,467.8 c -120.326,0 -217.869,-95.993 -217.869,-214.407 0,-118.414 97.543,-214.407 217.869,-214.407 120.327,0 217.869,95.993 217.869,214.407 0,118.414 -97.542,214.407 -217.869,214.407 z"
               inkscape:connector-curvature="0"
               style="fill:url(#linearGradient5701)" />
          </g>
        </g>
      </g>
      <g
         id="g6086"
         style="fill:url(#linearGradient5701)" />
      <g
         id="g6088"
         style="fill:url(#linearGradient5701)" />
      <g
         id="g6090"
         style="fill:url(#linearGradient5701)" />
      <g
         id="g6092"
         style="fill:url(#linearGradient5701)" />
      <g
         id="g6094"
         style="fill:url(#linearGradient5701)" />
      <g
         id="g6096"
         style="fill:url(#linearGradient5701)" />
      <g
         id="g6098"
         style="fill:url(#linearGradient5701)" />
      <g
         id="g6100"
         style="fill:url(#linearGradient5701)" />
      <g
         id="g6102"
         style="fill:url(#linearGradient5701)" />
      <g
         id="g6104"
         style="fill:url(#linearGradient5701)" />
      <g
         id="g6106"
         style="fill:url(#linearGradient5701)" />
      <g
         id="g6108"
         style="fill:url(#linearGradient5701)" />
      <g
         id="g6110"
         style="fill:url(#linearGradient5701)" />
      <g
         id="g6112"
         style="fill:url(#linearGradient5701)" />
      <g
         id="g6114"
         style="fill:url(#linearGradient5701)" />
    </g>
    <g
       id="g4520"
       transform="matrix(0.08714597,0,0,0.08712698,22,132.71574)"
       style="fill:url(#linearGradient5701)">
      <g
         id="g4479"
         style="fill:url(#linearGradient5701)">
        <g
           id="list"
           style="fill:url(#linearGradient5701)">
          <path
             id="path4482"
             d="m 0,255 51,0 0,-51 -51,0 0,51 z m 0,102 51,0 0,-51 -51,0 0,51 z m 0,-204 51,0 0,-51 -51,0 0,51 z m 102,102 357,0 0,-51 -357,0 0,51 z m 0,102 357,0 0,-51 -357,0 0,51 z m 0,-255 0,51 357,0 0,-51 -357,0 z"
             inkscape:connector-curvature="0"
             style="fill:url(#linearGradient5701)" />
        </g>
      </g>
      <g
         id="g4484"
         style="fill:url(#linearGradient5701)" />
      <g
         id="g4486"
         style="fill:url(#linearGradient5701)" />
      <g
         id="g4488"
         style="fill:url(#linearGradient5701)" />
      <g
         id="g4490"
         style="fill:url(#linearGradient5701)" />
      <g
         id="g4492"
         style="fill:url(#linearGradient5701)" />
      <g
         id="g4494"
         style="fill:url(#linearGradient5701)" />
      <g
         id="g4496"
         style="fill:url(#linearGradient5701)" />
      <g
         id="g4498"
         style="fill:url(#linearGradient5701)" />
      <g
         id="g4500"
         style="fill:url(#linearGradient5701)" />
      <g
         id="g4502"
         style="fill:url(#linearGradient5701)" />
      <g
         id="g4504"
         style="fill:url(#linearGradient5701)" />
      <g
         id="g4506"
         style="fill:url(#linearGradient5701)" />
      <g
         id="g4508"
         style="fill:url(#linearGradient5701)" />
      <g
         id="g4510"
         style="fill:url(#linearGradient5701)" />
      <g
         id="g4512"
         style="fill:url(#linearGradient5701)" />
    </g>
    <text
       xml:space="preserve"
       style="font-style:normal;font-weight:normal;font-size:40px;line-height:125%;font-family:Sans;letter-spacing:0px;word-spacing:0px;fill:url(#linearGradient4208);fill-opacity:1;stroke:none;stroke-width:1px;stroke-linecap:butt;stroke-linejoin:miter;stroke-opacity:1"
       x="302.36307"
       y="177.86949"
       id="text4561"
       sodipodi:linespacing="125%"><tspan
         sodipodi:role="line"
         id="tspan4563"
         x="302.36307"
         y="177.86949"
         style="font-style:normal;font-variant:normal;font-weight:normal;font-stretch:normal;font-size:35px;font-family:'Graphik Web';-inkscape-font-specification:'Graphik Web'">$10.99</tspan></text>
    <text
       xml:space="preserve"
       style="font-style:normal;font-weight:normal;font-size:40px;line-height:125%;font-family:Sans;letter-spacing:0px;word-spacing:0px;fill:url(#linearGradient5701);fill-opacity:1;stroke:none;stroke-width:1px;stroke-linecap:butt;stroke-linejoin:miter;stroke-opacity:1"
       x="350.87534"
       y="61.01025"
       id="text12744"
       sodipodi:linespacing="125%"><tspan
         sodipodi:role="line"
         id="tspan12746"
         x="350.87534"
         y="61.01025"
         style="font-size:32.5px;fill:url(#linearGradient5701)">:expenditures :gt 5.00 :year 2016</tspan></text>
    <text
       xml:space="preserve"
       style="font-style:normal;font-weight:normal;font-size:40px;line-height:125%;font-family:Sans;letter-spacing:0px;word-spacing:0px;fill:#000000;fill-opacity:1;stroke:none;stroke-width:1px;stroke-linecap:butt;stroke-linejoin:miter;stroke-opacity:1"
       x="1731.1866"
       y="59.010246"
       id="text12748"
       sodipodi:linespacing="125%"><tspan
         sodipodi:role="line"
         id="tspan12750"
         x="1731.1866"
         y="59.010246"
         style="font-style:normal;font-variant:normal;font-weight:normal;font-stretch:normal;font-size:25px;font-family:'Graphik Web';-inkscape-font-specification:'Graphik Web'">Signout</tspan></text>
    <text
       xml:space="preserve"
       style="font-style:normal;font-variant:normal;font-weight:500;font-stretch:normal;font-size:40px;line-height:125%;font-family:Avenir;-inkscape-font-specification:'Avenir Medium';letter-spacing:0px;word-spacing:0px;fill:url(#linearGradient4208);fill-opacity:1;stroke:none;stroke-width:1px;stroke-linecap:butt;stroke-linejoin:miter;stroke-opacity:1"
       x="529.18903"
       y="177.48936"
       id="text12752"
       sodipodi:linespacing="125%"><tspan
         sodipodi:role="line"
         id="tspan12754"
         x="529.18903"
         y="177.48936"
         style="font-style:normal;font-variant:normal;font-weight:300;font-stretch:normal;font-size:35px;font-family:Graphik;-inkscape-font-specification:'Graphik Light'">Skype subscription</tspan></text>
    <text
       xml:space="preserve"
       style="font-style:normal;font-variant:normal;font-weight:500;font-stretch:normal;font-size:40px;line-height:125%;font-family:Avenir;-inkscape-font-specification:'Avenir Medium';letter-spacing:0px;word-spacing:0px;fill:url(#linearGradient4208);fill-opacity:1;stroke:none;stroke-width:1px;stroke-linecap:butt;stroke-linejoin:miter;stroke-opacity:1"
       x="1380.4518"
       y="177.81389"
       id="text12752-2"
       sodipodi:linespacing="125%"><tspan
         sodipodi:role="line"
         id="tspan12754-9"
         x="1380.4518"
         y="177.81389"
         style="font-style:normal;font-variant:normal;font-weight:300;font-stretch:normal;font-size:35px;font-family:Graphik;-inkscape-font-specification:'Graphik Light'">13.01.2016</tspan></text>
    <rect
       style="opacity:1;fill:url(#linearGradient4196);fill-opacity:1;stroke:none;stroke-width:1;stroke-linejoin:miter;stroke-miterlimit:4;stroke-dasharray:none;stroke-dashoffset:20;stroke-opacity:1"
       id="rect12872"
       width="1351.7329"
       height="250.21439"
       x="280"
       y="221.5058" />
    <text
       xml:space="preserve"
       style="font-style:normal;font-variant:normal;font-weight:normal;font-stretch:normal;font-size:40px;line-height:125%;font-family:'Graphik Web';-inkscape-font-specification:'Graphik Web';letter-spacing:0px;word-spacing:0px;fill:url(#linearGradient4208);fill-opacity:1;stroke:none;stroke-width:1px;stroke-linecap:butt;stroke-linejoin:miter;stroke-opacity:1"
       x="302.36304"
       y="268.70563"
       id="text4561-8"
       sodipodi:linespacing="125%"><tspan
         sodipodi:role="line"
         id="tspan4563-2"
         x="302.36304"
         y="268.70563"
         style="font-style:normal;font-variant:normal;font-weight:normal;font-stretch:normal;font-size:35px;font-family:'Graphik Web';-inkscape-font-specification:'Graphik Web';fill:url(#linearGradient4208)">$1031.33</tspan></text>
    <text
       xml:space="preserve"
       style="font-style:normal;font-variant:normal;font-weight:500;font-stretch:normal;font-size:40px;line-height:125%;font-family:Avenir;-inkscape-font-specification:'Avenir Medium';letter-spacing:0px;word-spacing:0px;fill:url(#linearGradient4208);fill-opacity:1;stroke:none;stroke-width:1px;stroke-linecap:butt;stroke-linejoin:miter;stroke-opacity:1"
       x="529.18903"
       y="268.3255"
       id="text12752-1"
       sodipodi:linespacing="125%"><tspan
         sodipodi:role="line"
         id="tspan12754-3"
         x="529.18903"
         y="268.3255"
         style="font-style:normal;font-variant:normal;font-weight:normal;font-stretch:normal;font-size:35px;font-family:'Graphik Web';-inkscape-font-specification:'Graphik Web'">Vacation Hawaii</tspan></text>
    <text
       xml:space="preserve"
       style="font-style:normal;font-variant:normal;font-weight:500;font-stretch:normal;font-size:40px;line-height:125%;font-family:Avenir;-inkscape-font-specification:'Avenir Medium';letter-spacing:0px;word-spacing:0px;fill:url(#linearGradient4208);fill-opacity:1;stroke:none;stroke-width:1px;stroke-linecap:butt;stroke-linejoin:miter;stroke-opacity:1"
       x="1274.8817"
       y="268.65002"
       id="text12752-2-5"
       sodipodi:linespacing="125%"><tspan
         sodipodi:role="line"
         id="tspan12754-9-3"
         x="1274.8817"
         y="268.65002"
         style="font-style:normal;font-variant:normal;font-weight:300;font-stretch:normal;font-size:35px;font-family:Graphik;-inkscape-font-specification:'Graphik Light'">03.06-13.06.2016</tspan></text>
    <rect
       style="opacity:1;fill:url(#linearGradient5701);fill-opacity:1;stroke:url(#linearGradient4208);stroke-width:0;stroke-linejoin:miter;stroke-miterlimit:4;stroke-dasharray:none;stroke-dashoffset:20;stroke-opacity:1"
       id="rect4476-3"
       width="1353"
       height="63.124268"
       x="281"
       y="317.05087" />
    <text
       xml:space="preserve"
       style="font-style:normal;font-weight:normal;font-size:40px;line-height:125%;font-family:Sans;letter-spacing:0px;word-spacing:0px;fill:url(#linearGradient4208);fill-opacity:1;stroke:none;stroke-width:1px;stroke-linecap:butt;stroke-linejoin:miter;stroke-opacity:1"
       x="302.36304"
       y="360.92035"
       id="text4561-2"
       sodipodi:linespacing="125%"><tspan
         sodipodi:role="line"
         id="tspan4563-8"
         x="302.36304"
         y="360.92035"
         style="font-style:normal;font-variant:normal;font-weight:normal;font-stretch:normal;font-size:35px;font-family:'Graphik Web';-inkscape-font-specification:'Graphik Web'">$522.33</tspan></text>
    <text
       xml:space="preserve"
       style="font-style:normal;font-variant:normal;font-weight:500;font-stretch:normal;font-size:40px;line-height:125%;font-family:Avenir;-inkscape-font-specification:'Avenir Medium';letter-spacing:0px;word-spacing:0px;fill:url(#linearGradient4208);fill-opacity:1;stroke:none;stroke-width:1px;stroke-linecap:butt;stroke-linejoin:miter;stroke-opacity:1"
       x="529.18896"
       y="360.54022"
       id="text12752-9"
       sodipodi:linespacing="125%"><tspan
         sodipodi:role="line"
         id="tspan12754-4"
         x="529.18896"
         y="360.54022"
         style="font-style:normal;font-variant:normal;font-weight:300;font-stretch:normal;font-size:35px;font-family:Graphik;-inkscape-font-specification:'Graphik Light'">Flights</tspan></text>
    <text
       xml:space="preserve"
       style="font-style:normal;font-variant:normal;font-weight:500;font-stretch:normal;font-size:40px;line-height:125%;font-family:Avenir;-inkscape-font-specification:'Avenir Medium';letter-spacing:0px;word-spacing:0px;fill:url(#linearGradient4208);fill-opacity:1;stroke:none;stroke-width:1px;stroke-linecap:butt;stroke-linejoin:miter;stroke-opacity:1"
       x="1380.4519"
       y="360.86475"
       id="text12752-2-8"
       sodipodi:linespacing="125%"><tspan
         sodipodi:role="line"
         id="tspan12754-9-1"
         x="1380.4519"
         y="360.86475"
         style="font-style:normal;font-variant:normal;font-weight:300;font-stretch:normal;font-size:35px;font-family:Graphik;-inkscape-font-specification:'Graphik Light'">13.01.2016</tspan></text>
    <rect
       style="opacity:1;fill:url(#linearGradient5701);fill-opacity:1;stroke:url(#linearGradient4208);stroke-width:0;stroke-linejoin:miter;stroke-miterlimit:4;stroke-dasharray:none;stroke-dashoffset:20;stroke-opacity:1"
       id="rect4476-3-2"
       width="1353"
       height="63.124268"
       x="281"
       y="395.57962" />
    <text
       xml:space="preserve"
       style="font-style:normal;font-weight:normal;font-size:40px;line-height:125%;font-family:Sans;letter-spacing:0px;word-spacing:0px;fill:url(#linearGradient4208);fill-opacity:1;stroke:none;stroke-width:1px;stroke-linecap:butt;stroke-linejoin:miter;stroke-opacity:1"
       x="302.36304"
       y="439.4491"
       id="text4561-2-7"
       sodipodi:linespacing="125%"><tspan
         sodipodi:role="line"
         id="tspan4563-8-7"
         x="302.36304"
         y="439.4491"
         style="font-style:normal;font-variant:normal;font-weight:normal;font-stretch:normal;font-size:35px;font-family:'Graphik Web';-inkscape-font-specification:'Graphik Web'">$509.00</tspan></text>
    <text
       xml:space="preserve"
       style="font-style:normal;font-variant:normal;font-weight:500;font-stretch:normal;font-size:40px;line-height:125%;font-family:Avenir;-inkscape-font-specification:'Avenir Medium';letter-spacing:0px;word-spacing:0px;fill:url(#linearGradient4208);fill-opacity:1;stroke:none;stroke-width:1px;stroke-linecap:butt;stroke-linejoin:miter;stroke-opacity:1"
       x="529.18896"
       y="439.06897"
       id="text12752-9-1"
       sodipodi:linespacing="125%"><tspan
         sodipodi:role="line"
         id="tspan12754-4-1"
         x="529.18896"
         y="439.06897"
         style="font-style:normal;font-variant:normal;font-weight:300;font-stretch:normal;font-size:35px;font-family:Graphik;-inkscape-font-specification:'Graphik Light'">Rental car</tspan></text>
    <text
       xml:space="preserve"
       style="font-style:normal;font-variant:normal;font-weight:500;font-stretch:normal;font-size:40px;line-height:125%;font-family:Avenir;-inkscape-font-specification:'Avenir Medium';letter-spacing:0px;word-spacing:0px;fill:url(#linearGradient4208);fill-opacity:1;stroke:none;stroke-width:1px;stroke-linecap:butt;stroke-linejoin:miter;stroke-opacity:1"
       x="1380.4519"
       y="439.39349"
       id="text12752-2-8-5"
       sodipodi:linespacing="125%"><tspan
         sodipodi:role="line"
         id="tspan12754-9-1-1"
         x="1380.4519"
         y="439.39349"
         style="font-style:normal;font-variant:normal;font-weight:300;font-stretch:normal;font-size:35px;font-family:Graphik;-inkscape-font-specification:'Graphik Light'">13.01.2016</tspan></text>
    <g
       id="g13066"
       transform="translate(1577.3853,232.01813)">
      <g
         id="Layer_241">
        <g
           id="g13049">
          <rect
             id="rect13051"
             height="48"
             width="48"
             style="fill:#f2d040"
             x="0"
             y="0" />
          <g
             id="g13053">
            <path
               id="path13055"
               d="m 35.016,24.116 c 0,0 -0.977,-1.838 -2.215,-3.74 -2.018,1.831 -4.107,1.523 -4.996,1.328 -1.172,-0.258 -1.49,-0.758 -1.395,-1.199 -0.682,-0.217 -3.082,-1.646 -4.531,-2.123 -2.789,1.713 -3.908,5.99 -3.775,10.342 -1.871,3.585 -3.264,4.793 -7.086,5.682 0.717,1.7 1.008,2.338 2.074,4.592 4.781,-1.304 7.836,-4.133 9.715,-6.551 3.199,0.82 5.537,2.871 7.469,6.589 2.006,-1.686 2.226,-1.858 3.934,-3.241 -1.33,-3.211 -4.598,-5.988 -7.707,-7.502 0.029,-0.759 0.051,-0.949 0.084,-1.545 4.568,1.202 8.429,-2.632 8.429,-2.632 z"
               style="fill:#ffffff"
               inkscape:connector-curvature="0" />
            <path
               id="path13057"
               d="m 22.756,13.301 c 0,2.355 1.953,4.268 4.289,4.268 2.334,0 4.316,-1.912 4.316,-4.268 0,-2.356 -1.982,-4.267 -4.316,-4.267 -2.335,10e-4 -4.289,1.911 -4.289,4.267 z"
               style="fill:#ffffff"
               inkscape:connector-curvature="0" />
          </g>
        </g>
      </g>
      <g
         id="Layer_1" />
    </g>
    <g
       id="g13093"
       transform="translate(1577.3853,139.98525)">
      <g
         id="Layer_282">
        <g
           id="g13078">
          <rect
             id="rect13080"
             height="48"
             width="48"
             style="fill:#00aaf1"
             x="0"
             y="0" />
          <g
             id="g13082">
            <path
               id="path13084"
               d="m 38.485,24.192 c 0,-7.79 -6.406,-14.106 -14.309,-14.106 -0.834,0 -1.65,0.071 -2.446,0.206 -1.28,-0.795 -2.791,-1.257 -4.414,-1.257 -4.584,0 -8.298,3.664 -8.298,8.184 0,1.51 0.416,2.923 1.139,4.138 -0.19,0.916 -0.289,1.865 -0.289,2.836 0,7.793 6.406,14.108 14.309,14.108 0.895,0 1.771,-0.081 2.619,-0.235 1.171,0.618 2.506,0.97 3.924,0.97 4.584,0 8.298,-3.662 8.298,-8.182 0,-1.305 -0.311,-2.537 -0.862,-3.633 0.216,-0.978 0.329,-1.989 0.329,-3.029 z m -6.969,6.743 c -0.662,0.923 -1.64,1.655 -2.908,2.175 -1.254,0.514 -2.758,0.775 -4.469,0.775 -2.056,0 -3.78,-0.357 -5.125,-1.06 -0.961,-0.512 -1.755,-1.204 -2.357,-2.062 -0.606,-0.862 -0.915,-1.721 -0.915,-2.549 0,-0.517 0.202,-0.965 0.598,-1.331 0.39,-0.364 0.893,-0.548 1.494,-0.548 0.491,0 0.915,0.145 1.26,0.431 0.329,0.276 0.612,0.684 0.838,1.21 0.255,0.574 0.531,1.057 0.822,1.436 0.281,0.367 0.685,0.675 1.2,0.915 0.519,0.242 1.218,0.366 2.078,0.366 1.183,0 2.153,-0.249 2.882,-0.741 0.713,-0.478 1.058,-1.055 1.058,-1.76 0,-0.557 -0.178,-0.994 -0.551,-1.338 -0.39,-0.359 -0.905,-0.637 -1.527,-0.831 -0.65,-0.199 -1.533,-0.416 -2.625,-0.642 -1.486,-0.312 -2.748,-0.685 -3.75,-1.104 -1.026,-0.432 -1.854,-1.028 -2.458,-1.774 -0.614,-0.76 -0.927,-1.709 -0.927,-2.828 0,-1.065 0.327,-2.027 0.973,-2.854 0.638,-0.822 1.575,-1.464 2.777,-1.9 1.189,-0.433 2.601,-0.653 4.2,-0.653 1.278,0 2.399,0.147 3.338,0.434 0.943,0.289 1.737,0.681 2.363,1.162 0.63,0.484 1.099,1.002 1.391,1.541 0.297,0.544 0.448,1.085 0.448,1.608 0,0.505 -0.198,0.963 -0.586,1.363 -0.392,0.401 -0.887,0.604 -1.47,0.604 -0.531,0 -0.945,-0.128 -1.232,-0.377 -0.267,-0.235 -0.547,-0.6 -0.854,-1.123 -0.359,-0.667 -0.79,-1.194 -1.284,-1.566 -0.483,-0.361 -1.286,-0.543 -2.391,-0.543 -1.024,0 -1.86,0.203 -2.478,0.604 -0.596,0.386 -0.887,0.827 -0.887,1.352 0,0.322 0.093,0.59 0.287,0.821 0.202,0.246 0.489,0.459 0.852,0.64 0.376,0.185 0.765,0.334 1.151,0.439 0.398,0.109 1.066,0.271 1.981,0.479 1.157,0.246 2.223,0.519 3.162,0.817 0.955,0.302 1.777,0.67 2.448,1.103 0.687,0.439 1.228,1.003 1.615,1.679 0.386,0.677 0.582,1.514 0.582,2.485 -0.002,1.159 -0.34,2.219 -1.004,3.145 z"
               style="fill:#ffffff"
               inkscape:connector-curvature="0" />
          </g>
        </g>
      </g>
      <g
         id="Layer_1-9" />
    </g>
    <g
       id="g13177"
       transform="translate(1577.3853,403.14176)">
      <g
         id="Layer_250">
        <g
           id="g13160">
          <rect
             id="rect13162"
             height="48"
             width="48"
             style="fill:#eb4721"
             x="0"
             y="0" />
          <g
             id="g13164">
            <path
               id="path13166"
               d="m 22.176,28.573 0,-9.074 c 0,-0.838 0.291,-1.833 1.842,-1.833 1.549,0 1.93,0.995 1.93,1.833 l 0,1.73 1.807,0.978 2.846,-0.978 0,-1.73 c 0,-3.563 -2.879,-6.464 -6.582,-6.464 -3.701,0 -6.562,2.901 -6.562,6.464 l 0,9.074 c 0,0.836 -0.543,1.885 -1.885,1.885 -1.342,0 -1.893,-1.048 -1.893,-1.885 l 0,-3.565 -4.66,0 0,3.565 c 0,3.561 3.01,6.462 6.711,6.462 3.702,0 6.446,-2.899 6.446,-6.462 z"
               style="fill:#ffffff"
               inkscape:connector-curvature="0" />
            <path
               id="path13168"
               d="m 34.399,28.573 c 0,0.836 -0.517,1.866 -1.912,1.866 -1.398,0 -1.914,-1.029 -1.914,-1.866 l 0,-3.611 -2.787,0.974 -1.832,-0.974 0,3.735 c 0,3.563 2.65,6.338 6.352,6.338 3.703,0 6.713,-2.899 6.713,-6.462 l 0,-3.611 -4.619,0 0,3.611 z"
               style="fill:#ffffff"
               inkscape:connector-curvature="0" />
          </g>
        </g>
      </g>
      <g
         id="Layer_1-93" />
    </g>
    <g
       id="g13380"
       transform="translate(1577.3853,324.613)">
      <g
         style="display:none"
         id="nyt_x5F_exporter_x5F_info" />
      <g
         id="g13189" />
      <g
         id="g13191" />
      <g
         id="g13193" />
      <g
         id="g13195" />
      <g
         id="g13197" />
      <g
         id="g13199" />
      <g
         id="g13201" />
      <g
         id="g13203" />
      <g
         id="g13205" />
      <g
         id="g13207" />
      <g
         id="g13209" />
      <g
         id="g13211" />
      <g
         id="g13213" />
      <g
         id="g13215" />
      <g
         id="g13217" />
      <g
         id="g13219" />
      <g
         id="g13221" />
      <g
         id="g13223" />
      <g
         id="g13225" />
      <g
         id="g13227" />
      <g
         id="g13229" />
      <g
         id="g13231" />
      <g
         id="g13233" />
      <g
         id="g13235" />
      <g
         id="g13237" />
      <g
         id="g13239" />
      <g
         id="g13241" />
      <g
         id="g13243" />
      <g
         id="g13245" />
      <g
         id="g13247" />
      <g
         id="g13249" />
      <g
         id="g13251" />
      <g
         id="g13253" />
      <g
         id="g13255" />
      <g
         id="g13257" />
      <g
         id="g13259" />
      <g
         id="g13261" />
      <g
         id="g13263" />
      <g
         id="g13265" />
      <g
         id="g13267" />
      <g
         id="g13269" />
      <g
         id="g13271" />
      <g
         id="g13273" />
      <g
         id="g13275" />
      <g
         id="g13277" />
      <g
         id="g13279" />
      <g
         id="g13281" />
      <g
         id="g13283" />
      <g
         id="g13285" />
      <g
         id="g13287" />
      <g
         id="g13289" />
      <g
         id="g13291" />
      <g
         id="g13293" />
      <g
         id="g13295" />
      <g
         id="g13297" />
      <g
         id="g13299" />
      <g
         id="g13301" />
      <g
         id="g13303" />
      <g
         id="g13305" />
      <g
         id="g13307" />
      <g
         id="g13309" />
      <g
         id="g13311" />
      <g
         id="g13313" />
      <g
         id="g13315" />
      <g
         id="g13317" />
      <g
         id="g13319" />
      <g
         id="g13321" />
      <g
         id="g13323" />
      <g
         id="g13325" />
      <g
         id="g13327" />
      <g
         id="g13329" />
      <g
         id="g13331" />
      <g
         id="g13333" />
      <g
         id="g13335" />
      <g
         id="g13337" />
      <g
         id="g13339" />
      <g
         id="g13341" />
      <g
         id="g13343" />
      <g
         id="g13345" />
      <g
         id="g13347" />
      <g
         id="g13349" />
      <g
         id="g13351">
        <g
           id="g13353">
          <rect
             id="rect13355"
             height="48"
             width="48"
             style="fill:#eb4755"
             x="0"
             y="0" />
          <path
             d="m 34.753,9.914 -22.125,0 c -2.175,0 -3.937,1.786 -3.937,3.988 l 0,11.048 c 0,0.205 0.015,0.406 0.045,0.603 -0.031,0.294 -0.045,0.592 -0.045,0.892 0,6.333 6.715,11.469 15,11.469 8.284,0 15,-5.136 15,-11.469 0,-0.3 -0.016,-0.598 -0.046,-0.892 0.03,-0.197 0.046,-0.398 0.046,-0.603 l 0,-11.048 C 38.69,11.7 36.926,9.914 34.753,9.914 l 0,0 z m -1.864,11.107 -7.747,7.787 c -0.394,0.396 -0.911,0.59 -1.427,0.586 -0.532,0.018 -1.069,-0.177 -1.477,-0.586 l -7.746,-7.787 c -0.778,-0.782 -0.776,-2.05 0,-2.831 0.777,-0.782 2.037,-0.783 2.816,0 l 6.382,6.415 6.382,-6.415 c 0.776,-0.782 2.04,-0.78 2.816,0 0.779,0.782 0.779,2.048 0.001,2.831 l 0,0 z"
             style="fill:#ffffff"
             id="path9-6_8_"
             inkscape:connector-curvature="0" />
        </g>
      </g>
      <g
         id="g13358" />
      <g
         id="g13360" />
      <g
         id="g13362" />
      <g
         id="g13364" />
      <g
         id="g13366" />
      <g
         id="g13368" />
      <g
         id="g13370" />
      <g
         id="g13372" />
    </g>
    <text
       xml:space="preserve"
       style="font-style:normal;font-weight:normal;font-size:15px;line-height:125%;font-family:'Anonymous Pro';letter-spacing:0px;word-spacing:0px;fill:url(#linearGradient5701);fill-opacity:1;stroke:none;stroke-width:1px;stroke-linecap:butt;stroke-linejoin:miter;stroke-opacity:1;-inkscape-font-specification:'Anonymous Pro';font-stretch:normal;font-variant:normal;"
       x="687.37054"
       y="1061.3058"
       id="text14290"
       sodipodi:linespacing="125%"><tspan
         sodipodi:role="line"
         id="tspan14292"
         x="687.37054"
         y="1061.3058" /></text>
  </g>
</svg>
